<svg width="19" height="18" viewBox="0 0 19 18" fill="none" xmlns="http://www.w3.org/2000/svg">
<path d="M3.2364 0.000114043L2.56495 0.118975L2.91814 2.12923C2.71848 2.16043 2.51898 2.19261 2.31965 2.22578L2.07332 0.823548L1.40187 0.942295L1.64771 2.34091C1.4304 2.37933 1.21328 2.41876 0.996338 2.4592L1.12104 3.13185C1.33801 3.09133 1.55274 3.0524 1.76604 3.01462L2.03332 4.53583L2.7048 4.41708L2.43813 2.8993C2.63904 2.86585 2.83852 2.83373 3.03655 2.80275L3.40689 4.91046L4.07838 4.79164L3.71106 2.70141C4.03239 2.65511 4.34993 2.61254 4.66486 2.57293C5.2535 4.33627 5.97915 6.37385 7.20034 7.68345C7.53068 8.83902 7.57386 9.48552 8.42842 11.082C7.57386 12.5264 6.9678 14.9591 6.63484 17.2018L4.81664 17.4298V18H7.57387C8.17993 16.1755 9.99813 12.5264 9.99813 12.5264C9.99813 12.5264 11.8163 16.1755 12.4224 18H15.1796V17.4298L13.3614 17.2018C13.0285 14.9591 12.4224 12.5264 11.4375 11.082C12.4224 9.48552 12.3533 8.81709 12.7947 7.68466C14.0164 6.37511 14.7425 4.33684 15.3314 2.57301C15.6463 2.61254 15.9639 2.65511 16.2852 2.70149L15.9179 4.79172L16.5894 4.91046L16.9598 2.80275C17.1579 2.83373 17.3573 2.86585 17.5583 2.8993L17.2915 4.41708L17.963 4.53586L18.2303 3.01466C18.4436 3.0524 18.6583 3.09133 18.8753 3.13185L19 2.4592C18.7811 2.41834 18.5641 2.379 18.3487 2.34088L18.5945 0.942219L17.923 0.823434L17.6767 2.22566C17.4758 2.19221 17.2763 2.16002 17.0782 2.12912L17.4313 0.118861L16.7599 0L16.4036 2.02789C14.1642 1.70503 12.0808 1.54272 9.99813 1.54272C7.91554 1.54272 5.83207 1.70503 3.59269 2.02801L3.2364 0.000114043V0.000114043ZM9.99813 2.22464C11.344 2.22464 12.6902 2.2942 14.0823 2.43229C13.5489 3.75728 12.6257 5.22626 11.6883 6.30817C11.2971 6.87301 10.6932 7.24286 9.99813 7.24286C9.30305 7.24286 8.6991 6.87301 8.30796 6.30817C7.37053 5.22626 6.44734 3.75724 5.91392 2.43229C7.30598 2.2942 8.65221 2.22464 9.99813 2.22464ZM9.99813 2.98562C9.20892 2.98562 8.52084 3.75496 8.52084 4.77214C8.52084 5.78932 9.20892 6.55866 9.99813 6.55866C10.7873 6.55866 11.4754 5.78932 11.4754 4.77214C11.4754 3.75496 10.7873 2.98562 9.99813 2.98562Z" fill="white"/>
</svg>
