<svg width="18" height="18" viewBox="0 0 18 18" fill="none" xmlns="http://www.w3.org/2000/svg">
<path d="M1.18303 0C0.432731 1.19313 0 2.57254 0 4.04453C0 7.0858 1.83142 9.74493 4.54489 11.156C4.56167 10.8945 4.5832 10.632 4.61257 10.37C2.30814 9.04564 0.778208 6.7082 0.778208 4.04453C0.778208 2.55118 1.26258 1.16722 2.09277 0H1.18299H1.18303ZM4.05805 0C2.99143 1.0709 2.33488 2.48607 2.33488 4.04453C2.33488 5.97929 3.33661 7.70558 4.89378 8.81592L4.89628 8.80645C4.96342 8.55608 5.04092 8.31374 5.13326 8.08205C3.89504 7.10118 3.11329 5.65692 3.11329 4.04453C3.11329 2.42156 3.9152 0.982648 5.17224 0H4.05814H4.05805ZM12.8265 0C14.0811 0.982913 14.8855 2.42425 14.8855 4.04453C14.8855 5.60325 14.1547 7.00489 12.9879 7.98262C13.082 8.22056 13.1593 8.47033 13.2235 8.72831C14.7123 7.61601 15.6638 5.92983 15.6638 4.0446C15.6638 2.48698 15.0053 1.07124 13.9392 7.5785e-05H12.8264L12.8265 0ZM15.8838 0C16.7193 1.16916 17.2205 2.55243 17.2205 4.04453C17.2205 6.67536 15.7286 8.98769 13.4721 10.3204C13.4948 10.5869 13.5109 10.8547 13.5215 11.1205C16.1981 9.70073 18 7.0608 18 4.04456C18 2.57019 17.5525 1.19135 16.7974 3.78564e-05H15.8838L15.8838 0ZM8.99869 0.08636C6.59867 0.08636 4.64514 1.86303 4.64514 4.04574C4.64514 5.12925 5.1266 6.11281 5.90501 6.82858C6.07702 6.6501 6.27319 6.49461 6.49201 6.36685C5.83213 5.77748 5.42347 4.95642 5.42347 4.04574C5.42347 2.24555 7.01929 0.794209 8.99873 0.794209C10.9782 0.794209 12.5741 2.24555 12.5741 4.04574C12.5741 4.92297 12.1947 5.71665 11.5771 6.30057C11.8057 6.4195 12.01 6.56696 12.1888 6.73741C12.9105 6.03039 13.3524 5.0838 13.3524 4.0457C13.3524 1.86299 11.3989 0.0863979 8.99877 0.0863979L8.99869 0.08636ZM8.82435 2.19097C7.92382 2.29702 7.11799 3.24812 7.11799 4.47421C7.11799 5.15016 7.37509 5.74889 7.75447 6.16334L8.17879 6.62612L7.52673 6.73748C7.03178 6.8218 6.66794 7.05989 6.35923 7.44408C6.05062 7.82827 5.81684 8.36132 5.65245 8.97455C5.35308 10.0919 5.28861 11.4554 5.27899 12.6534H6.90325L6.93053 12.9813L7.34311 18H10.8287L11.1931 12.9837L11.2178 12.6534H12.764C12.7632 11.4413 12.7477 10.0592 12.4764 8.93319C12.3277 8.3159 12.1019 7.78399 11.7892 7.40389C11.4766 7.0238 11.0955 6.78695 10.5411 6.70907L9.87723 6.61548L10.2976 6.13728C10.6605 5.7248 10.9054 5.13372 10.9054 4.47424C10.9054 3.16691 10.0033 2.19328 9.01168 2.19328C8.9004 2.19328 8.83363 2.18979 8.82426 2.19089L8.82435 2.19097Z" fill="white"/>
</svg>
