<svg width="19" height="18" viewBox="0 0 19 18" fill="none" xmlns="http://www.w3.org/2000/svg">
<path d="M10.5873 7.14978e-07C9.66943 0.000457939 8.64482 0.211543 7.51029 0.665529C12.9625 1.14592 13.2148 5.59071 10.6986 5.72601C7.46331 5.89994 8.67889 3.54593 5.63946 1.80036C7.80198 6.84221 3.77999 6.41737 0.995605 1.4222C1.48145 4.68963 1.91683 5.87792 3.96491 7.27451C10.1373 11.4836 3.78674 12.4173 1.59379 8.5206C2.14652 12.0814 4.18763 13.5807 6.59096 13.8522C4.96885 14.7853 2.8176 15.0901 1.16494 14.826C3.10091 16.4383 6.15828 16.3858 8.5072 15.1527C7.09816 16.5291 4.80995 17.8444 4.07551 18H10.6823C19.8126 14.6182 20.3174 8.02223 17.4536 3.90881C17.3613 4.90746 17.0712 5.79513 16.4844 6.58471C15.7833 2.6833 13.8657 -0.00159957 10.5873 7.14978e-07H10.5873ZM10.6943 7.03615L16.0587 9.02336C16.0695 8.90116 16.0913 8.77588 16.125 8.64969C16.3382 7.85058 16.9447 7.31944 17.4797 7.46339C18.0146 7.60733 18.2754 8.37181 18.0622 9.17093C17.8489 9.97008 17.2425 10.5012 16.7076 10.3573C16.68 10.3499 16.6534 10.3404 16.6274 10.3298L14.3289 12.2118L17.009 12.958L11.6963 16.1857L14.1946 13.5617L13.0063 13.2948L7.30237 17.9653L13.2994 10.4634L8.08662 8.89602L13.2848 9.11145L10.6944 7.03615H10.6943Z" fill="white"/>
</svg>
