<svg width="14" height="22" viewBox="0 0 14 22" fill="none" xmlns="http://www.w3.org/2000/svg">
<path d="M7.57846 1.12019e-06C7.30314 1.12019e-06 7.03193 0.0169378 6.76582 0.0497005L7.96022 0.949288L9.25719 0.216661C8.70977 0.0725183 8.14533 -0.000329479 7.57846 1.12019e-06V1.12019e-06ZM6.09404 0.168442C3.25971 0.822957 1.15578 3.31075 1.15578 6.28809C1.15578 9.55913 3.69536 12.2394 6.9529 12.5465C6.9581 12.5424 6.96297 12.538 6.96817 12.534C7.35872 12.2272 7.8734 12.0262 8.44531 11.9646C8.7393 11.9329 9.02327 11.9409 9.28768 11.9857L9.28796 11.9845V11.9845C9.38032 11.6245 9.60823 11.3422 9.88005 11.1824C10.084 11.0626 10.3044 11.0049 10.5195 10.991C10.5911 10.9864 10.6623 10.9866 10.732 10.9911C11.0106 11.0088 11.2729 11.0887 11.4927 11.2495C11.4985 11.2537 11.5042 11.2585 11.51 11.2629C13.0042 10.1302 13.9724 8.36598 14 6.37532C13.7056 6.11895 13.197 5.67055 13.1303 5.57263C13.0364 5.43473 12.0975 4.53847 12.0975 4.53847L10.0084 4.42353L10.9473 5.54968L9.67974 6.07823L8.71108 4.78332L9.88563 7.51438L9.08892 10.6344L7.49546 10.5694L6.79839 7.6769L4.2754 7.15681L5.20493 4.42677H8.47012L8.6313 4.13639L6.91499 3.25578L4.93934 4.13431L4.90621 2.21681C4.90621 2.21681 5.902 1.33925 5.902 1.07927C5.902 0.934434 6.00277 0.518513 6.09404 0.168489V0.168442ZM10.6273 11.8208C10.5121 11.8212 10.3999 11.8484 10.318 11.8966C10.2243 11.9516 10.1556 12.022 10.1132 12.1875L10.1129 12.1883L9.46109 14.6839L9.07952 14.626C8.50675 14.5392 7.86456 14.5327 7.54183 14.5765C7.30976 14.6517 7.20029 14.784 7.17089 14.8674C7.14088 14.9526 7.1362 14.9691 7.22454 15.0294C7.25842 15.0505 7.50208 15.1518 7.79522 15.2231C8.09091 15.295 8.45259 15.3572 8.80089 15.3901C9.14924 15.423 9.48799 15.4248 9.71964 15.3912C9.95124 15.3576 10.0013 15.2698 9.96499 15.349C10.5999 13.9652 10.7501 13.2486 10.9975 11.922C10.9937 11.9209 10.9965 11.9262 10.9836 11.9168C10.9332 11.88 10.8087 11.8306 10.6768 11.8222C10.6602 11.8212 10.6437 11.8207 10.6273 11.8208V11.8208ZM8.73405 12.7826C8.65824 12.7831 8.58044 12.7875 8.50123 12.796C8.079 12.8416 7.71113 12.997 7.4784 13.1797C7.24566 13.3625 7.16413 13.5389 7.1741 13.6871C7.17708 13.7289 7.18719 13.7698 7.20402 13.8082C7.24289 13.7937 7.28227 13.7805 7.32209 13.7687L7.3496 13.7607L7.37805 13.7564C7.76313 13.6973 8.28555 13.7007 8.82509 13.7567L9.07323 12.8066C8.96101 12.7897 8.84759 12.7817 8.73405 12.7826V12.7826ZM6.39654 13.2964C4.86641 13.8816 3.24955 15.5608 2.93131 17.3348C3.33543 17.9799 3.68402 18.5126 4.92653 18.6677C5.88366 18.7873 6.63731 18.5112 7.43813 18.1392C7.22023 19.4032 7.01165 20.6671 6.38189 21.9311L9.29259 22L9.19867 21.4714L7.43813 21.2646C7.94699 20.0039 9.04865 18.5439 8.77617 17.1739C7.8897 17.0128 6.98873 16.8645 5.48994 17.2429C5.62956 16.863 6.1249 16.2677 6.71634 15.6969C6.36227 15.4387 6.23442 14.9711 6.36662 14.5958C6.401 14.4988 6.44859 14.4067 6.50808 14.3221C6.40708 14.1618 6.34171 13.9797 6.32814 13.7783C6.3169 13.6111 6.34289 13.4494 6.39654 13.2964V13.2964ZM3.29403 18.8924C3.5538 19.5502 3.90621 20.1867 4.24577 20.8165C3.39896 20.3189 1.4917 20.1461 1.18258 20.15C1.03606 20.9395 0.680056 21.3717 0 21.8039L0.704209 21.9417L1.64026 20.8739C2.87814 21.5712 5.1899 22.3058 5.63145 21.7737C5.64587 21.3445 5.62786 20.4338 5.35731 19.4792C4.54052 19.5021 3.83616 19.2546 3.29403 18.8924V18.8924Z" fill="white"/>
</svg>
