<svg width="18" height="16" viewBox="0 0 18 16" fill="none" xmlns="http://www.w3.org/2000/svg">
<path d="M8.37926 5.44789e-05C8.29174 0.00035521 8.20461 0.00125747 8.11758 0.00358814C8.0492 0.00546771 7.98082 0.00757281 7.91277 0.0106553C7.57885 0.069561 7.42466 0.214626 7.34093 0.380667C7.24868 0.563737 7.25228 0.810074 7.35514 1.02912C7.45807 1.24828 7.64686 1.42744 7.91043 1.49435C8.17403 1.56126 8.5369 1.52668 9.01384 1.22418L9.39508 1.81625C8.79581 2.19629 8.21593 2.29655 7.73521 2.17449C7.25451 2.05243 6.89782 1.71877 6.71351 1.32632C6.53984 0.956567 6.50794 0.522763 6.67449 0.137526C5.04856 0.398411 3.57633 1.01709 2.44548 1.88786C2.07383 2.28963 2.03746 2.75659 2.20036 3.07552C2.38335 3.43361 2.81449 3.69503 3.67676 3.42437L3.89104 4.09398C2.80827 4.43381 1.91581 4.07188 1.56942 3.39384C1.48493 3.22855 1.43333 3.04966 1.41307 2.8652C1.23068 3.07992 1.06603 3.30344 0.920554 3.53598L0.925327 3.53823C0.598982 4.27562 0.591556 4.78638 0.721655 5.11827C0.85183 5.4502 1.12457 5.66109 1.54453 5.77733C2.38437 6.00964 3.74435 5.72932 4.70202 5.01963C5.11194 4.71589 5.50053 3.97922 5.53436 3.4079C5.55122 3.12221 5.49023 2.89651 5.36975 2.75238C5.24927 2.60826 5.05636 2.50041 4.65701 2.50451L4.64993 1.80207C5.19877 1.79643 5.64442 1.98078 5.91435 2.30369C6.18425 2.6266 6.26517 3.04244 6.24112 3.44903C6.193 4.26224 5.76395 5.10951 5.12584 5.58234C3.99398 6.42115 2.49901 6.77045 1.3551 6.45401C0.825158 6.3074 0.35606 5.9884 0.114351 5.4943C-0.247304 7.20268 0.27813 8.78956 1.27812 9.88776C1.40882 10.0314 1.54794 10.1671 1.69372 10.293C1.58938 9.99651 1.54157 9.68777 1.55279 9.3873C1.57287 8.84881 1.78321 8.32174 2.20517 7.9577C2.55122 7.659 3.02926 7.48668 3.60099 7.48781C3.6391 7.48781 3.67805 7.48849 3.717 7.49006C3.80603 7.49382 3.89744 7.50149 3.99053 7.5136L3.89809 8.21024C3.30753 8.13325 2.92424 8.26745 2.66923 8.48748C2.41426 8.70754 2.2736 9.03684 2.25958 9.41317C2.23154 10.1659 2.71686 11.0449 3.76325 11.2998L3.76204 11.3069C4.79222 11.502 5.94182 11.3209 7.09596 10.622C7.09665 10.6215 7.09759 10.6213 7.09831 10.6208C7.33851 10.4535 7.46789 10.2897 7.53165 10.1486C7.60685 9.98196 7.60526 9.83686 7.55173 9.681C7.44474 9.36937 7.06149 9.04902 6.70999 8.95974C6.14163 8.81539 5.78058 9.01372 5.61131 9.24994C5.44203 9.48602 5.43173 9.71796 5.69299 9.91945L5.25844 10.4739C4.72096 10.0592 4.68667 9.32787 5.03473 8.84226C5.29583 8.47808 5.75398 8.22855 6.30632 8.21261C6.32931 8.21193 6.35284 8.21126 6.37618 8.21148C6.53931 8.21261 6.70919 8.23486 6.88524 8.27952C7.47266 8.42876 8.01575 8.8538 8.22184 9.45425C8.27549 9.61044 8.30102 9.78092 8.29292 9.95474C8.92598 9.63379 9.5936 9.34877 10.2736 9.13473C11.4161 8.61672 11.9114 7.70858 11.8921 6.9439C11.8726 6.17354 11.3925 5.5252 10.2867 5.41671L10.3565 4.71774C11.7456 4.85404 12.5714 5.83976 12.5989 6.92623C12.6149 7.55927 12.3809 8.21798 11.9098 8.77873C12.5187 8.71107 13.1238 8.72254 13.7105 8.8399C13.5911 8.59661 13.5332 8.33324 13.5413 8.0716C13.567 7.24324 14.277 6.47047 15.393 6.45871C15.4673 6.45788 15.5435 6.4607 15.6214 6.4669L15.5646 7.16704C14.6202 7.09193 14.2651 7.58378 14.2493 8.0939C14.2337 8.59837 14.573 9.16307 15.5457 9.23803C16.6179 9.24742 17.3865 8.67047 17.7632 7.81309C18.2674 6.6652 18.0282 4.94423 16.4431 3.37024C16.4131 3.34043 16.3833 3.31035 16.3531 3.28096C16.3363 3.4235 16.2991 3.56075 16.2454 3.6886C15.9708 4.34231 15.3273 4.78356 14.659 4.90682C13.737 5.07681 12.981 4.70582 12.6321 4.13973C12.2832 3.57372 12.3748 2.77328 13.0026 2.35189L13.3993 2.93455C13.0616 3.16115 13.0477 3.46797 13.2359 3.77322C13.4241 4.07853 13.8485 4.34295 14.5299 4.21732C14.9582 4.1383 15.4352 3.79141 15.5918 3.4185C15.6702 3.23205 15.6854 3.04778 15.6073 2.83696C15.5438 2.66574 15.4108 2.46992 15.1633 2.2637L15.1562 2.25787C14.1213 1.48397 13.0218 0.927397 11.9075 0.560354C11.9082 0.561557 11.9092 0.56261 11.9099 0.56385C12.1631 1.02322 12.1819 1.54431 12.0259 2.00525C11.714 2.92718 10.7352 3.65356 9.52427 3.61341C9.26104 3.60477 9.01054 3.7307 8.7974 3.97643C8.58422 4.22217 8.42859 4.58214 8.39248 4.96558C8.32031 5.73244 8.65476 6.57772 9.95882 6.99551L9.74075 7.66396C8.1843 7.16535 7.58772 5.95182 7.6866 4.90099C7.73611 4.37565 7.94066 3.88746 8.26083 3.51838C8.58104 3.14931 9.03653 2.89425 9.5478 2.91106C10.4586 2.94121 11.1512 2.38162 11.3544 1.78095C11.4561 1.48067 11.4429 1.18185 11.2881 0.90112C11.1378 0.628507 10.84 0.35894 10.3067 0.162224C9.65831 0.0506902 9.01251 -0.00193787 8.37926 5.44789e-05V5.44789e-05ZM12.2139 9.47075C10.6259 9.59894 8.90401 10.3504 7.46762 11.2211C5.34679 12.5066 3.11496 12.226 1.53142 11.0602C2.15441 13.2722 4.36192 13.7212 6.6649 13.1617C6.89536 13.0758 7.1218 12.916 7.3149 12.7095C7.58226 12.4236 7.77597 12.0528 7.83697 11.7462L8.53194 11.8825C8.43931 12.348 8.18801 12.8097 7.83462 13.1877C7.49554 13.5502 7.0538 13.8399 6.54295 13.916C6.28662 14.4825 6.07567 15.0317 5.99005 15.4161C5.85555 16.0198 6.52825 16.2516 6.82944 15.6428C7.5501 14.1864 8.56725 12.89 9.83777 11.7721C10.8252 11.1273 11.6717 10.3322 12.214 9.47075H12.2139Z" fill="white"/>
</svg>
