<svg width="24" height="26" viewBox="0 0 24 26" fill="none" xmlns="http://www.w3.org/2000/svg">
<path d="M2.08206 0.444824C1.33884 1.7464 0.859574 3.18177 0.6717 4.66878C0.483826 6.15579 0.591028 7.66525 0.987173 9.11078C1.38332 10.5563 2.06063 11.9095 2.98034 13.093C3.90005 14.2765 5.04412 15.267 6.34706 16.0078C6.36806 15.6428 6.39606 15.2768 6.43306 14.9078C5.26764 14.1733 4.25951 13.2149 3.46701 12.0881C2.67451 10.9614 2.1134 9.68855 1.81616 8.34344C1.51891 6.99832 1.49145 5.60759 1.73535 4.25179C1.97925 2.89598 2.48967 1.60202 3.23706 0.444824H2.08206ZM5.73006 0.444824C4.95059 1.30268 4.35675 2.31232 3.98577 3.41044C3.61478 4.50856 3.47466 5.67148 3.57418 6.82629C3.6737 7.9811 4.01072 9.1029 4.56411 10.1214C5.11749 11.1398 5.87531 12.033 6.79006 12.7448V12.7318C6.87175 12.3897 6.97189 12.0522 7.09006 11.7208C6.28148 11.019 5.63402 10.1507 5.19199 9.17552C4.74995 8.20031 4.52376 7.14113 4.52889 6.07043C4.53402 4.99973 4.77034 3.94277 5.2217 2.97184C5.67305 2.0009 6.32879 1.13891 7.14406 0.444824H5.73106H5.73006ZM16.8551 0.444824C17.6562 1.1282 18.3029 1.97395 18.7526 2.92607C19.2023 3.87819 19.4446 4.91497 19.4635 5.96777C19.4825 7.02058 19.2775 8.06539 18.8623 9.03304C18.4471 10.0007 17.8311 10.8691 17.0551 11.5808C17.1762 11.921 17.2764 12.2683 17.3551 12.6208C18.2409 11.8991 18.9704 11.0045 19.499 9.99146C20.0276 8.97847 20.3442 7.86838 20.4296 6.72895C20.5149 5.58953 20.3672 4.44466 19.9954 3.36422C19.6236 2.28378 19.0355 1.29044 18.2671 0.444824H16.8551ZM20.7341 0.444824C21.4845 1.58943 22.0009 2.87134 22.2533 4.21655C22.5057 5.56177 22.4891 6.94365 22.2046 8.28245C21.9201 9.62124 21.3733 10.8904 20.5957 12.0168C19.8181 13.1431 18.8251 14.1043 17.6741 14.8448C17.7031 15.2168 17.7231 15.5898 17.7371 15.9608C19.4649 14.9563 20.8989 13.516 21.8959 11.7839C22.893 10.0518 23.4182 8.08841 23.4191 6.08982C23.416 4.10666 22.8896 2.15943 21.8931 0.444824H20.7341ZM11.9991 0.564824C10.9092 0.564386 9.84358 0.886524 8.93648 1.49065C8.02938 2.09478 7.32137 2.95386 6.90166 3.95967C6.48195 4.96548 6.36931 6.07301 6.57795 7.14271C6.78658 8.21242 7.30715 9.19645 8.07406 9.97082C8.29093 9.72225 8.54173 9.50546 8.81906 9.32682C8.18104 8.69937 7.74286 7.89722 7.55967 7.02132C7.37648 6.14542 7.45645 5.2349 7.78953 4.40435C8.12261 3.57379 8.69391 2.86031 9.43154 2.35369C10.1692 1.84706 11.0402 1.56994 11.9349 1.55718C12.8297 1.54442 13.7082 1.7966 14.46 2.28198C15.2118 2.76737 15.8032 3.46427 16.1598 4.28499C16.5164 5.10572 16.6223 6.01358 16.4642 6.89435C16.3061 7.77512 15.8909 8.58944 15.2711 9.23482C15.5578 9.39925 15.8192 9.60438 16.0471 9.84382C16.7784 9.05633 17.264 8.07252 17.4443 7.01305C17.6246 5.95358 17.4917 4.86452 17.0621 3.87946C16.6324 2.89439 15.9245 2.05614 15.0254 1.46753C14.1262 0.878922 13.0748 0.56554 12.0001 0.565824L11.9991 0.564824ZM11.7821 3.50182C10.6391 3.64982 9.61706 4.97682 9.61706 6.68682C9.60603 7.54193 9.89155 8.37447 10.4251 9.04282L10.9631 9.68882L10.1361 9.84382C9.83593 9.90111 9.55028 10.0179 9.29594 10.1872C9.04159 10.3565 8.82369 10.575 8.65506 10.8298C8.22218 11.4779 7.91673 12.2025 7.75506 12.9648C7.41013 14.653 7.25118 16.374 7.28106 18.0968H9.34206L9.37706 18.5538L9.90006 25.5538H14.3221L14.7841 18.5538L14.8151 18.0928H16.7771C16.8308 16.3549 16.7085 14.6161 16.4121 12.9028C16.2724 12.1391 15.9755 11.4127 15.5401 10.7698C15.3576 10.5074 15.1225 10.2857 14.8499 10.1189C14.5772 9.95211 14.2728 9.84379 13.9561 9.80082L13.1141 9.66982L13.6471 9.00282C14.1564 8.33755 14.4279 7.52064 14.4181 6.68282C14.4181 4.85882 13.2741 3.50082 12.0181 3.50082C11.8771 3.50082 11.7921 3.50082 11.7801 3.50082L11.7821 3.50182Z" fill="white"/>
</svg>
