<svg width="26" height="26" viewBox="0 0 26 26" fill="none" xmlns="http://www.w3.org/2000/svg">
<path d="M13.802 0.802734C12.3617 0.835261 10.9406 1.14066 9.61402 1.70273C17.034 2.35373 17.377 8.37673 13.953 8.56073C9.55302 8.79673 11.204 5.60673 7.06802 3.24073C10.012 10.0747 4.53802 9.50273 0.749023 2.72973C1.41002 7.15773 2.00302 8.76773 4.79002 10.6607C13.19 16.3607 4.54802 17.6297 1.56302 12.3497C2.31502 17.1747 5.09302 19.2067 8.36302 19.5747C6.10636 20.7935 3.51819 21.2562 0.979023 20.8947C3.61402 23.0797 7.77902 23.0087 10.971 21.3377C9.22936 23.0022 7.18114 24.3128 4.94002 25.1967H13.931C26.357 20.6127 27.044 11.6737 23.149 6.10273C23.0608 7.41176 22.6035 8.66899 21.83 9.72873C20.874 4.43873 18.264 0.802734 13.802 0.802734ZM13.948 10.3377L21.248 13.0307C21.2634 12.8598 21.2935 12.6905 21.338 12.5247C21.628 11.4417 22.454 10.7247 23.182 10.9167C23.91 11.1087 24.265 12.1477 23.975 13.2307C23.685 14.3137 22.86 15.0307 22.131 14.8387C22.094 14.829 22.0576 14.8169 22.022 14.8027L18.894 17.3527L22.541 18.3637L15.311 22.7377L18.711 19.1817L17.094 18.8197L9.33102 25.1487L17.493 14.9827L10.399 12.8587L17.473 13.1507L13.949 10.3377H13.948Z" fill="white"/>
</svg>
