<svg width="26" height="25" viewBox="0 0 26 25" fill="none" xmlns="http://www.w3.org/2000/svg">
<path d="M3.12202 0L2.18602 0.165L2.67802 2.957C2.40002 3.00033 2.12202 3.045 1.84402 3.091L1.50002 1.144L0.564023 1.309L0.907023 3.252C0.604357 3.30533 0.30169 3.36 -0.000976562 3.416L0.173023 4.35C0.47569 4.294 0.77569 4.23967 1.07302 4.187L1.44502 6.3L2.38102 6.135L2.00902 4.027C2.28902 3.98033 2.56702 3.93567 2.84302 3.893L3.36002 6.82L4.29602 6.655L3.78402 3.755C4.23202 3.68833 4.67502 3.629 5.11302 3.577C5.93302 6.026 6.94502 8.856 8.64702 10.677C8.9865 12.3248 9.56317 13.9147 10.359 15.397C9.04464 18.0661 8.19899 20.9413 7.85902 23.897L5.32502 24.214V25H9.16802C10.013 22.466 12.547 17.4 12.547 17.4C12.547 17.4 15.081 22.468 15.926 25H19.769V24.208L17.235 23.891C16.771 20.776 15.926 17.397 14.554 15.391C15.927 13.174 15.83 12.245 16.446 10.672C18.146 8.853 19.161 6.022 19.981 3.572C20.4197 3.62667 20.8627 3.686 21.31 3.75L20.798 6.65L21.734 6.815L22.25 3.888C22.526 3.93133 22.804 3.976 23.084 4.022L22.712 6.13L23.648 6.295L24.021 4.182C24.3184 4.23467 24.6184 4.289 24.921 4.345L25.095 3.411C24.7897 3.35433 24.487 3.29967 24.187 3.247L24.53 1.304L23.594 1.139L23.251 3.087C22.971 3.04033 22.693 2.99567 22.417 2.953L22.909 0.161L21.97 0L21.47 2.817C18.5145 2.37781 15.531 2.15256 12.543 2.143C9.55501 2.15248 6.57159 2.37773 3.61602 2.817L3.12202 0ZM12.546 3.09C14.422 3.09 16.298 3.19 18.238 3.378C17.4111 5.33453 16.285 7.15056 14.9 8.761C14.6489 9.15862 14.3012 9.48619 13.8893 9.71319C13.4774 9.9402 13.0148 10.0592 12.5445 10.0592C12.0742 10.0592 11.6116 9.9402 11.1997 9.71319C10.7879 9.48619 10.4402 9.15862 10.189 8.761C8.80444 7.15045 7.67866 5.33443 6.85202 3.378C8.79402 3.186 10.67 3.09 12.546 3.09ZM12.546 4.147C11.9461 4.20806 11.3941 4.5023 11.009 4.96634C10.6239 5.43037 10.4365 6.0271 10.487 6.628C10.4365 7.2289 10.6239 7.82563 11.009 8.28967C11.3941 8.7537 11.9461 9.04794 12.546 9.109C13.1459 9.04794 13.6979 8.7537 14.083 8.28967C14.4681 7.82563 14.6556 7.2289 14.605 6.628C14.6556 6.0271 14.4681 5.43037 14.083 4.96634C13.6979 4.5023 13.1459 4.20806 12.546 4.147Z" fill="white"/>
</svg>
