<svg width="18" height="30" viewBox="0 0 18 30" fill="none" xmlns="http://www.w3.org/2000/svg">
<path d="M9.74395 0.625C9.39626 0.624944 9.04892 0.646653 8.70395 0.69L10.2319 1.866L11.8909 0.909C11.1909 0.720413 10.469 0.624924 9.74395 0.625ZM7.84394 0.845C5.94893 1.29253 4.27435 2.39831 3.11856 3.96532C1.96278 5.53233 1.40086 7.45879 1.53293 9.40145C1.665 11.3441 2.48248 13.1768 3.83972 14.5729C5.19696 15.9691 7.0058 16.8381 8.94394 17.025L8.96395 17.009C9.51105 16.5875 10.1663 16.3296 10.8539 16.265C11.2128 16.2238 11.5757 16.2332 11.9319 16.293C12.0367 15.8574 12.3091 15.4808 12.6899 15.245C12.9387 15.0975 13.2192 15.0118 13.5079 14.995C13.5985 14.9891 13.6894 14.9891 13.7799 14.995C14.1303 15.0105 14.4685 15.128 14.7529 15.333L14.7749 15.351C15.753 14.5953 16.5476 13.6283 17.0993 12.5223C17.651 11.4163 17.9456 10.1999 17.9609 8.964C17.5839 8.629 16.9339 8.043 16.8479 7.915C16.7279 7.735 15.5269 6.564 15.5269 6.564L12.8539 6.414L14.0539 7.886L12.4319 8.577L11.1889 6.876L12.6889 10.445L11.6729 14.525L9.63395 14.44L8.74195 10.66L5.51394 9.98L6.70295 6.412H10.8809L11.0869 6.033L8.88695 4.882L6.36395 6.025L6.32095 3.525C6.32095 3.525 7.59495 2.375 7.59495 2.035C7.6474 1.63255 7.73064 1.23472 7.84394 0.845ZM13.6439 16.073C13.5041 16.0705 13.3661 16.105 13.2439 16.173C13.175 16.2131 13.1157 16.268 13.0704 16.3337C13.0251 16.3994 12.9949 16.4743 12.9819 16.553L12.1439 19.814L11.6559 19.738C11.0055 19.6352 10.3448 19.6134 9.68895 19.673C9.58676 19.6976 9.49123 19.7445 9.40915 19.8101C9.32706 19.8758 9.26042 19.9587 9.21395 20.053C9.17595 20.164 9.16995 20.186 9.28295 20.265C9.51711 20.3738 9.76169 20.4585 10.0129 20.518C10.4363 20.6209 10.8663 20.6938 11.2999 20.736C11.6904 20.7797 12.0845 20.7797 12.4749 20.736C12.7749 20.692 12.8349 20.577 12.7889 20.681C13.445 19.2606 13.8901 17.752 14.1099 16.203C14.1099 16.203 14.1099 16.209 14.0919 16.196C13.9733 16.1225 13.8382 16.0799 13.6989 16.072L13.6439 16.073ZM11.2189 17.325C11.1187 17.3258 11.0186 17.3318 10.9189 17.343C10.4451 17.3867 9.9923 17.5597 9.60995 17.843C9.4961 17.9136 9.40118 18.0108 9.3334 18.1264C9.26561 18.2419 9.22702 18.3722 9.22095 18.506C9.22473 18.5604 9.23757 18.6138 9.25895 18.664C9.30895 18.6447 9.35928 18.6273 9.40994 18.612L9.44494 18.601L9.48095 18.595C10.0956 18.5194 10.7173 18.5194 11.3319 18.595L11.6489 17.353C11.5053 17.3311 11.3602 17.3207 11.2149 17.322L11.2189 17.325ZM8.22795 17.996C7.12752 18.4673 6.15307 19.1903 5.38297 20.1068C4.61286 21.0234 4.06859 22.1078 3.79395 23.273C4.01808 23.7703 4.37434 24.1967 4.82396 24.5056C5.27357 24.8145 5.79931 24.9941 6.34394 25.025C7.46034 25.1275 8.5814 24.8864 9.55695 24.334C9.35441 26.0434 8.89911 27.7133 8.20595 29.289L11.9299 29.379L11.8099 28.688L9.55795 28.418C10.2089 26.771 11.6189 24.862 11.2699 23.072C9.88434 22.7513 8.44054 22.7822 7.06994 23.162C7.46554 22.3987 7.99727 21.7141 8.63894 21.142C8.42421 20.9783 8.2658 20.7517 8.18569 20.4939C8.10559 20.236 8.10777 19.9596 8.19195 19.703C8.23598 19.5761 8.29686 19.4557 8.37295 19.345C8.23892 19.1305 8.15991 18.8863 8.14295 18.634C8.12845 18.4194 8.15736 18.2041 8.22795 18.001V17.996ZM4.25895 25.309C4.61568 26.1705 5.02203 27.0105 5.47594 27.825C4.23553 27.2923 2.90623 26.9969 1.55694 26.954C1.48952 27.4074 1.31777 27.8389 1.05522 28.2146C0.792673 28.5902 0.446495 28.8998 0.0439453 29.119L0.943945 29.299L2.14395 27.899C3.72795 28.81 6.68594 29.77 7.24994 29.075C7.27859 28.0633 7.16036 27.0528 6.89894 26.075C5.96053 26.1075 5.03606 25.841 4.25895 25.314V25.309Z" fill="white"/>
</svg>
