<svg width="18" height="10" viewBox="0 0 18 10" fill="none" xmlns="http://www.w3.org/2000/svg">
<g clip-path="url(#clip0_4_13)">
<path d="M11.25 9.5C13.544 9.5 15.4371 7.78122 15.7149 5.5625H18V4.4375H15.7148C15.4371 2.21878 13.5441 0.500001 11.25 0.500001H10.6875C10.3759 0.500001 10.125 0.750876 10.125 1.0625V2.1875H8.4375V3.3125H10.125V6.6875H8.4375V7.8125H10.125V8.9375C10.125 9.24912 10.3759 9.5 10.6875 9.5H11.25ZM3.375 9.5C3.68662 9.5 3.9375 9.24912 3.9375 8.9375V7.8125H2.8125V6.6875H3.9375V3.3125H2.8125V2.1875H3.9375V1.0625C3.9375 0.750876 3.68662 0.5 3.375 0.5H-1.12055e-06L-1.90735e-06 9.5H3.375Z" fill="#FE9627"/>
</g>
<defs>
<clipPath id="clip0_4_13">
<rect width="18" height="10" fill="white"/>
</clipPath>
</defs>
</svg>
