<svg width="9" height="10" viewBox="0 0 9 10" fill="none" xmlns="http://www.w3.org/2000/svg">
<path d="M4.49298 0C4.34674 0 4.20049 0.0332707 4.08721 0.0998122L0.470338 2.22395C0.243741 2.35703 0.243741 2.56747 0.470338 2.70055L4.08721 4.82469C4.31381 4.95777 4.67213 4.95777 4.8987 4.82469L8.51557 2.70055C8.74217 2.5675 8.74217 2.35703 8.51557 2.22397L4.8987 0.0998362C4.7854 0.0332467 4.63919 0 4.49298 0ZM4.47347 1.27674C4.68688 1.27907 4.87876 1.32871 5.04908 1.42559C5.16557 1.49189 5.24189 1.5675 5.27795 1.65248C5.31283 1.73678 5.31489 1.84792 5.28411 1.98579L5.24622 2.12296C5.22112 2.22111 5.21591 2.29171 5.23059 2.33474C5.24409 2.37715 5.27755 2.41355 5.33104 2.44398L5.4113 2.48961L4.62437 2.93722L4.53693 2.88753C4.43942 2.8321 4.37724 2.76945 4.35027 2.69954C4.32214 2.62899 4.32683 2.51677 4.36434 2.36287L4.40042 2.22469C4.42142 2.1424 4.42346 2.07493 4.40658 2.02233C4.39112 1.96886 4.35605 1.92658 4.30135 1.89547C4.21813 1.84811 4.11842 1.83114 4.0023 1.84443C3.88495 1.85708 3.76382 1.89896 3.63885 1.97004C3.52112 2.03699 3.41421 2.12082 3.31801 2.22149C3.22065 2.32155 3.13711 2.43602 3.06733 2.56497L2.50735 2.2464C2.63327 2.11803 2.75699 2.00576 2.87852 1.90953C3.00009 1.81337 3.12842 1.72683 3.26357 1.64991C3.61818 1.44821 3.94794 1.32826 4.25284 1.29011C4.3288 1.28039 4.40236 1.27592 4.47352 1.27672L4.47347 1.27674ZM5.67529 2.63978L6.31021 3.00095L5.52328 3.44857L4.88833 3.08742L5.67529 2.63981V2.63978ZM0.228823 3.10293C0.0926044 3.0992 0 3.20716 0 3.39813V7.18907C0 7.45476 0.179242 7.76994 0.40584 7.90281L3.88484 9.94252C4.11143 10.0754 4.29068 9.9703 4.29068 9.70464V5.91363C4.29068 5.64795 4.11143 5.33284 3.88484 5.19995L0.40584 3.16026C0.342146 3.12288 0.282122 3.10432 0.228823 3.10288V3.10293ZM8.77118 3.10298C8.7179 3.10442 8.65793 3.12293 8.59421 3.16031L5.11509 5.19999C4.8885 5.33286 4.70925 5.64804 4.70925 5.91373V9.70476C4.70925 9.9704 4.8885 10.0754 5.11509 9.94252L8.59423 7.9029C8.82083 7.77004 9 7.4549 9 7.18922V3.39818C9 3.20726 8.90742 3.09932 8.77118 3.10302V3.10298ZM1.15766 4.63554C1.31282 4.66838 1.45453 4.70858 1.58277 4.75606C1.71099 4.80356 1.83478 4.86224 1.95404 4.93215C2.2669 5.11557 2.50541 5.32457 2.66954 5.55914C2.83368 5.79233 2.91575 6.04104 2.91575 6.30533C2.91575 6.44091 2.89077 6.54799 2.84073 6.6266C2.79073 6.70381 2.70544 6.76867 2.58492 6.82117L2.46179 6.86733C2.37461 6.90199 2.31752 6.93772 2.2906 6.97454C2.26368 7.00993 2.25023 7.05873 2.25023 7.12099V7.21439L1.55588 6.80733V6.70564C1.55588 6.59217 1.577 6.50428 1.61933 6.44192C1.66165 6.37817 1.75079 6.31836 1.8867 6.26242L2.00983 6.2142C2.08292 6.18511 2.13613 6.14852 2.16947 6.10441C2.20404 6.06107 2.22137 6.00758 2.22137 5.94392C2.22137 5.84711 2.19059 5.75365 2.12902 5.66362C2.06746 5.57217 1.98158 5.49414 1.87129 5.42947C1.76741 5.36861 1.65521 5.32635 1.53466 5.30274C1.41414 5.27774 1.28846 5.27259 1.15766 5.28723V4.63552V4.63554ZM7.53981 4.84245C7.57584 4.84245 7.60923 4.84642 7.64001 4.8543C7.80415 4.89508 7.88621 5.04758 7.88621 5.31187C7.88621 5.44746 7.86121 5.58386 7.8112 5.7211C7.76119 5.85692 7.67591 6.02176 7.55539 6.21554L7.43226 6.40603C7.34508 6.54294 7.28799 6.64554 7.26107 6.71391C7.23415 6.78086 7.2207 6.84548 7.2207 6.90774V7.00113L6.52634 7.40817V7.30648C6.52634 7.19302 6.54751 7.08027 6.5898 6.96832C6.63218 6.85497 6.72126 6.69066 6.85717 6.47541L6.9803 6.28285C7.05339 6.16804 7.1066 6.06905 7.13993 5.98587C7.1745 5.90192 7.19184 5.82812 7.19184 5.76447C7.19184 5.66763 7.16106 5.61028 7.09954 5.59239C7.03798 5.57316 6.95203 5.5958 6.84176 5.66042C6.73788 5.72131 6.62572 5.81067 6.50518 5.92834C6.38466 6.0447 6.25897 6.18682 6.12818 6.3548V5.70309C6.28334 5.55405 6.425 5.42808 6.55319 5.32524C6.68146 5.2224 6.80525 5.13605 6.92447 5.06617C7.17872 4.91712 7.38382 4.84255 7.53985 4.84243L7.53981 4.84245ZM1.55585 7.11455L2.25023 7.52154V8.26042L1.55588 7.85343V7.11458L1.55585 7.11455ZM7.2207 7.30831V8.04716L6.52634 8.45415V7.71535L7.22072 7.30831H7.2207Z" fill="#BF9534"/>
</svg>
