<svg width="25" height="25" viewBox="0 0 25 25" fill="none" xmlns="http://www.w3.org/2000/svg">
<path fill-rule="evenodd" clip-rule="evenodd" d="M0.515015 12.297C0.515015 9.92363 1.2188 7.60355 2.53738 5.63016C3.85596 3.65677 5.7301 2.1187 7.92281 1.21045C10.1155 0.302197 12.5283 0.0645564 14.8561 0.527579C17.1839 0.990602 19.3221 2.13349 21.0003 3.81172C22.6785 5.48995 23.8214 7.62815 24.2844 9.95592C24.7475 12.2837 24.5098 14.6965 23.6016 16.8892C22.6933 19.0819 21.1552 20.9561 19.1819 22.2746C17.2085 23.5932 14.8884 24.297 12.515 24.297C9.33242 24.297 6.28017 23.0327 4.02973 20.7823C1.7793 18.5318 0.515015 15.4796 0.515015 12.297H0.515015ZM13.766 19.353V12.824H15.566L15.805 10.574H13.766V9.448C13.766 8.861 13.822 8.548 14.666 8.548H15.793V6.297H13.993C11.827 6.297 11.065 7.388 11.065 9.224V10.575H9.71501V12.825H11.065V19.353H13.766Z" fill="white"/>
</svg>
