<svg width="25" height="25" viewBox="0 0 25 25" fill="none" xmlns="http://www.w3.org/2000/svg">
<path fill-rule="evenodd" clip-rule="evenodd" d="M0.515015 12.297C0.515015 9.92363 1.2188 7.60355 2.53738 5.63016C3.85596 3.65677 5.7301 2.1187 7.92281 1.21045C10.1155 0.302197 12.5283 0.0645564 14.8561 0.527579C17.1839 0.990602 19.3221 2.13349 21.0003 3.81172C22.6785 5.48995 23.8214 7.62815 24.2844 9.95592C24.7475 12.2837 24.5098 14.6965 23.6016 16.8892C22.6933 19.0819 21.1552 20.9561 19.1819 22.2746C17.2085 23.5932 14.8884 24.297 12.515 24.297C9.33242 24.297 6.28017 23.0327 4.02973 20.7823C1.7793 18.5318 0.515015 15.4796 0.515015 12.297H0.515015ZM12.156 10.051L12.181 10.466L11.761 10.415C10.2453 10.2256 8.83686 9.53337 7.76101 8.449L7.21501 7.897L7.07201 8.304C6.9183 8.72925 6.88552 9.18879 6.97732 9.63154C7.06912 10.0743 7.2819 10.4829 7.59201 10.812C7.92801 11.168 7.85201 11.219 7.27301 11.007C7.14918 10.9491 7.01469 10.9174 6.87801 10.914C6.90324 11.3082 7.00515 11.6938 7.17801 12.049C7.44503 12.5169 7.84539 12.8946 8.32801 13.134L8.73901 13.329L8.25201 13.337C7.78201 13.337 7.76501 13.346 7.81601 13.523C7.96351 13.8532 8.17991 14.1481 8.45069 14.3878C8.72146 14.6275 9.04037 14.8066 9.38601 14.913L9.90601 15.091L9.45301 15.362C8.76758 15.7558 7.99432 15.9714 7.20401 15.989C6.97221 15.98 6.74028 16.0036 6.51501 16.059C7.01747 16.3822 7.56279 16.6333 8.13501 16.805C9.04786 17.0755 10.0058 17.1594 10.9518 17.0517C11.8978 16.944 12.8124 16.6468 13.641 16.178C14.8818 15.3862 15.857 14.241 16.441 12.89C16.7573 12.076 16.9498 11.2191 17.012 10.348C17.012 9.958 17.037 9.907 17.512 9.441C17.725 9.23926 17.9216 9.02091 18.1 8.788C18.184 8.627 18.176 8.627 17.747 8.771C17.034 9.025 16.933 8.991 17.285 8.61C17.5396 8.35321 17.7345 8.04356 17.856 7.703C17.856 7.678 17.73 7.72 17.587 7.796C17.3493 7.91273 17.1021 8.00908 16.848 8.084L16.395 8.228L15.984 7.948C15.7619 7.79601 15.5225 7.67081 15.271 7.575C14.7867 7.45853 14.2804 7.47025 13.802 7.609C13.2978 7.77917 12.8635 8.1104 12.5661 8.55168C12.2687 8.99295 12.1246 9.51978 12.156 10.051Z" fill="white"/>
</svg>
