<svg width="25" height="25" viewBox="0 0 25 25" fill="none" xmlns="http://www.w3.org/2000/svg">
<path fill-rule="evenodd" clip-rule="evenodd" d="M24.515 12.297C24.515 14.6704 23.8112 16.9904 22.4927 18.9638C21.1741 20.9372 19.2999 22.4753 17.1072 23.3836C14.9145 24.2918 12.5017 24.5294 10.1739 24.0664C7.84616 23.6034 5.70797 22.4605 4.02974 20.7823C2.35151 19.104 1.20862 16.9659 0.745597 14.6381C0.282574 12.3103 0.520214 9.89751 1.42847 7.7048C2.33672 5.51208 3.87479 3.63794 5.84818 2.31936C7.82157 1.00078 10.1416 0.296997 12.515 0.296997C15.6976 0.296997 18.7499 1.56128 21.0003 3.81172C23.2507 6.06215 24.515 9.1144 24.515 12.297ZM8.55102 11.197C7.35102 11.722 6.11402 12.261 4.98402 12.883C4.39402 13.315 5.17802 13.62 5.91302 13.907C6.03002 13.953 6.14602 13.998 6.25402 14.043L6.53002 14.13C6.92074 14.32 7.34619 14.4282 7.78024 14.4478C8.21429 14.4674 8.64776 14.398 9.05402 14.244C10.354 13.495 11.589 12.629 12.819 11.763C13.219 11.479 13.625 11.196 14.03 10.917L14.094 10.876C14.439 10.652 15.216 10.149 14.929 10.842C14.25 11.585 13.522 12.242 12.791 12.903C12.298 13.349 11.803 13.796 11.32 14.272C10.899 14.614 10.462 15.301 10.934 15.78C12.019 16.539 13.121 17.28 14.222 18.021L15.296 18.745C15.4421 18.8515 15.6128 18.9194 15.7921 18.9423C15.9714 18.9653 16.1537 18.9426 16.3219 18.8764C16.4902 18.8102 16.639 18.7026 16.7545 18.5635C16.8701 18.4245 16.9487 18.2585 16.983 18.081L17.161 17.037C17.49 15.115 17.819 13.192 18.109 11.263C18.148 10.963 18.193 10.658 18.238 10.355C18.3587 9.62468 18.4424 8.88875 18.489 8.15C18.401 7.414 17.509 7.576 17.012 7.741C14.459 8.712 11.932 9.756 9.41202 10.817C9.12935 10.9443 8.84235 11.071 8.55102 11.197Z" fill="white"/>
</svg>
