<svg width="25" height="25" viewBox="0 0 25 25" fill="none" xmlns="http://www.w3.org/2000/svg">
<path fill-rule="evenodd" clip-rule="evenodd" d="M12.515 0.296997C9.293 0.337855 6.21904 1.65643 3.96883 3.96289C1.71863 6.26935 0.476339 9.37493 0.515038 12.597C0.495821 15.1559 1.27631 17.657 2.74749 19.7508C4.21868 21.8446 6.30709 23.4267 8.72104 24.276C9.32104 24.39 9.54104 24.009 9.54104 23.684C9.54104 23.391 9.53004 22.421 9.52504 21.393C6.18704 22.137 5.48204 19.941 5.48204 19.941C5.26623 19.2017 4.79398 18.5635 4.15004 18.141C3.06104 17.377 4.23204 17.393 4.23204 17.393C4.61537 17.4493 4.98065 17.5929 5.29968 17.8127C5.61871 18.0326 5.88296 18.3228 6.07204 18.661C6.22866 18.9628 6.44475 19.2297 6.70728 19.4457C6.96982 19.6618 7.27337 19.8224 7.59964 19.918C7.92592 20.0136 8.26817 20.0421 8.60577 20.0019C8.94337 19.9617 9.26934 19.8535 9.56404 19.684C9.61668 19.0629 9.88689 18.4803 10.327 18.039C7.66204 17.728 4.86004 16.673 4.86004 11.958C4.84165 10.7416 5.28307 9.56304 6.09604 8.658C5.72908 7.59591 5.77043 6.43528 6.21204 5.402C6.21204 5.402 7.22004 5.071 9.51204 6.663C11.4773 6.11095 13.5567 6.11095 15.522 6.663C17.812 5.071 18.822 5.402 18.822 5.402C19.2649 6.4349 19.3069 7.59575 18.94 8.658C19.7534 9.56272 20.1946 10.7416 20.175 11.958C20.175 16.684 17.368 17.724 14.696 18.029C14.9835 18.3308 15.2045 18.6896 15.3447 19.0822C15.4849 19.4747 15.5412 19.8923 15.51 20.308C15.51 21.954 15.496 23.279 15.496 23.684C15.496 24.011 15.712 24.395 16.32 24.274C18.7321 23.4241 20.8188 21.8424 22.2888 19.7496C23.7588 17.6568 24.5388 15.1574 24.52 12.6C24.5595 9.37656 23.3169 6.26946 21.0655 3.96221C18.8142 1.65495 15.7385 0.336537 12.515 0.296997Z" fill="white"/>
</svg>
