<svg width="25" height="25" viewBox="0 0 25 25" fill="none" xmlns="http://www.w3.org/2000/svg">
<path fill-rule="evenodd" clip-rule="evenodd" d="M24.515 12.297C24.515 14.6704 23.8112 16.9904 22.4927 18.9638C21.1741 20.9372 19.2999 22.4753 17.1072 23.3836C14.9145 24.2918 12.5017 24.5294 10.1739 24.0664C7.84616 23.6034 5.70797 22.4605 4.02974 20.7823C2.35151 19.104 1.20862 16.9659 0.745597 14.6381C0.282574 12.3103 0.520214 9.89751 1.42847 7.7048C2.33672 5.51208 3.87479 3.63794 5.84818 2.31936C7.82157 1.00078 10.1416 0.296997 12.515 0.296997C15.6976 0.296997 18.7499 1.56128 21.0003 3.81172C23.2507 6.06215 24.515 9.1144 24.515 12.297ZM6.21502 7.914C6.28738 7.98169 6.34309 8.06522 6.37779 8.15803C6.41249 8.25085 6.42523 8.35044 6.41502 8.449V15.687C6.43649 15.8153 6.42808 15.9468 6.39044 16.0714C6.35281 16.1959 6.28696 16.3101 6.19802 16.405L4.51502 18.491V18.766H9.28102V18.491L7.60002 16.405C7.51029 16.3102 7.44289 16.1965 7.40275 16.0723C7.36261 15.948 7.35074 15.8164 7.36802 15.687V9.427L11.551 18.766H12.037L15.63 9.427V16.871C15.63 17.071 15.63 17.108 15.503 17.238L14.215 18.522V18.797H20.485V18.522L19.238 17.269C19.1836 17.2262 19.1417 17.1695 19.1167 17.105C19.0918 17.0404 19.0846 16.9703 19.096 16.902V7.697C19.0846 7.62871 19.0918 7.55861 19.1167 7.49404C19.1417 7.42947 19.1836 7.37281 19.238 7.33L20.515 6.072V5.797H16.093L12.941 13.845L9.35502 5.797H4.71502V6.072L6.21502 7.914Z" fill="white"/>
</svg>
