<svg width="10" height="10" viewBox="0 0 10 10" fill="none" xmlns="http://www.w3.org/2000/svg">
<path d="M4.99441 0C5.68715 0 6.33706 0.132216 6.94413 0.396648C7.55121 0.66108 8.08194 1.01862 8.53631 1.46927C8.99069 1.91993 9.34823 2.44879 9.60894 3.05587C9.86965 3.66294 10 4.31285 10 5.00559C10 5.69832 9.86965 6.34637 9.60894 6.94972C9.34823 7.55307 8.99069 8.08194 8.53631 8.53631C8.08194 8.99069 7.55121 9.34823 6.94413 9.60894C6.33706 9.86965 5.68715 10 4.99441 10C4.30168 10 3.65363 9.86965 3.05028 9.60894C2.44693 9.34823 1.91806 8.99069 1.46369 8.53631C1.00931 8.08194 0.651769 7.55307 0.391061 6.94972C0.130354 6.34637 0 5.69832 0 5.00559C0 4.31285 0.130354 3.66294 0.391061 3.05587C0.651769 2.44879 1.00931 1.91993 1.46369 1.46927C1.91806 1.01862 2.44693 0.66108 3.05028 0.396648C3.65363 0.132216 4.30168 0 4.99441 0ZM5.00559 8.42458C5.19926 8.42458 5.36127 8.3594 5.49162 8.22905C5.62197 8.0987 5.68715 7.94041 5.68715 7.75419C5.68715 7.56052 5.62197 7.39851 5.49162 7.26816C5.36127 7.1378 5.19926 7.07263 5.00559 7.07263C4.81192 7.07263 4.64991 7.1378 4.51955 7.26816C4.3892 7.39851 4.32402 7.56052 4.32402 7.75419C4.32402 7.94041 4.3892 8.0987 4.51955 8.22905C4.64991 8.3594 4.81192 8.42458 5.00559 8.42458ZM5.57542 5.67598C5.56797 5.5568 5.64246 5.43017 5.79888 5.29609C5.95531 5.16201 6.13035 5.01303 6.32402 4.84916C6.51769 4.68529 6.69646 4.50093 6.86034 4.29609C7.02421 4.09125 7.11359 3.85475 7.12849 3.58659C7.14339 3.29609 7.11359 3.02421 7.03911 2.77095C6.96462 2.51769 6.84171 2.29981 6.67039 2.11732C6.49907 1.93482 6.27747 1.78957 6.00559 1.68156C5.73371 1.57356 5.41527 1.51955 5.05028 1.51955C4.5959 1.51955 4.21788 1.59963 3.9162 1.75978C3.61453 1.91993 3.37058 2.11359 3.18436 2.34078C2.99814 2.56797 2.86778 2.80261 2.7933 3.04469C2.71881 3.28678 2.68529 3.48976 2.69274 3.65363C2.70019 3.8473 2.76164 3.98883 2.87709 4.07821C2.99255 4.1676 3.11732 4.21415 3.2514 4.21788C3.38547 4.2216 3.50838 4.18436 3.62011 4.10614C3.73184 4.02793 3.78771 3.91434 3.78771 3.76536C3.78771 3.67598 3.81564 3.56611 3.87151 3.43575C3.92737 3.3054 4.00372 3.18063 4.10056 3.06145C4.19739 2.94227 4.31471 2.84171 4.45251 2.75978C4.59032 2.67784 4.74488 2.63687 4.9162 2.63687C5.2514 2.63687 5.51955 2.72067 5.72067 2.88827C5.92179 3.05587 6.0149 3.26629 6 3.51955C6 3.64618 5.96276 3.7635 5.88827 3.87151C5.81378 3.97952 5.71881 4.0838 5.60335 4.18436C5.4879 4.28492 5.36499 4.38547 5.23464 4.48603C5.10428 4.58659 4.98138 4.69087 4.86592 4.79888C4.75047 4.90689 4.65363 5.02421 4.57542 5.15084C4.49721 5.27747 4.45438 5.41527 4.44693 5.56425L4.4581 5.98883C4.4581 6.10056 4.51024 6.2067 4.61452 6.30726C4.71881 6.40782 4.85661 6.46182 5.02793 6.46927C5.19925 6.46182 5.3352 6.40596 5.43575 6.30168C5.53631 6.19739 5.58287 6.07821 5.57542 5.94413V5.67598Z" fill="#47D4CD"/>
</svg>
