<svg width="97" height="20" viewBox="0 0 97 20" fill="none" xmlns="http://www.w3.org/2000/svg">
<path fill-rule="evenodd" clip-rule="evenodd" d="M82 19.0526L97 9.52628L82 0V4.52628H77V14.5263H82V19.0526ZM0 4.52628H5V14.5263H0V4.52628ZM42 4.52628H47V14.5263H42V4.52628ZM12 4.52628H7V14.5263H12V4.52628ZM49 4.52628H54V14.5263H49V4.52628ZM19 4.52628H14V14.5263H19V4.52628ZM56 4.52628H61V14.5263H56V4.52628ZM26 4.52628H21V14.5263H26V4.52628ZM63 4.52628H68V14.5263H63V4.52628ZM33 4.52628H28V14.5263H33V4.52628ZM70 4.52628H75V14.5263H70V4.52628ZM40 4.52628H35V14.5263H40V4.52628Z" fill="url(#paint0_linear_1_16)"/>
<defs>
<linearGradient id="paint0_linear_1_16" x1="97" y1="9.52637" x2="0" y2="9.52637" gradientUnits="userSpaceOnUse">
<stop stop-color="#44B7D9"/>
<stop offset="1" stop-color="#207D98" stop-opacity="0"/>
</linearGradient>
</defs>
</svg>
