<svg width="24" height="24" viewBox="0 0 24 24" fill="none" xmlns="http://www.w3.org/2000/svg">
<path d="M3.71848 0L8.53188 17.9586L24 19.1663L19.185 1.20919L3.71848 0ZM2.70403 0.0730292C1.07603 0.690816 -0.270653 2.82954 0.0466573 3.98315L0.220474 4.59673C0.255452 4.50729 0.292408 4.41806 0.330808 4.32887C0.861031 3.09699 1.75055 1.89964 3.02481 1.26928L2.70392 0.0730811L2.70403 0.0730292ZM3.28581 2.23991C2.39479 2.76015 1.68583 3.69945 1.25348 4.70384C0.975376 5.34998 0.825626 6.02402 0.785514 6.5867V6.58826L4.2549 18.8254C4.27122 18.7957 4.28662 18.7657 4.30341 18.736C4.86952 17.7376 5.79043 16.7819 7.03421 16.2218L3.2857 2.23991H3.28581ZM6.47121 4.25423L19.2952 5.09506L19.2267 6.06246L6.40436 5.22335L6.47121 4.25434V4.25423ZM8.93299 6.04137L9.23554 6.50235L9.99435 7.66131L12.0818 6.86921L12.488 6.71661L12.7003 7.08507L13.571 8.59781L13.8016 8.99879L13.4038 9.2438C12.8547 9.58266 12.4737 9.88184 12.2406 10.1155C12.0785 10.278 12.0135 10.3872 11.9782 10.458C12.052 10.4737 12.1618 10.4879 12.3325 10.4725C13.3095 10.3847 15.3427 9.43556 16.5576 7.27336L16.8501 6.75239L17.318 7.13541L19.7782 9.15134L20.3949 9.65621L19.6545 9.96786L17.8746 10.7145C18.1659 10.9703 18.4863 11.0217 18.8606 10.9953C19.3928 10.9576 20.0066 10.68 20.4183 10.4206L20.9616 11.2339C20.4583 11.5507 19.7386 11.9057 18.9326 11.9626C18.1266 12.0196 17.2067 11.6875 16.6545 10.7599L16.3738 10.2875L16.8885 10.0716L18.5165 9.38825L17.1242 8.24554C15.7489 10.3385 13.772 11.3188 12.4262 11.4399C12.0636 11.4725 11.7339 11.4534 11.4317 11.3003C11.1296 11.1471 10.8978 10.7497 10.9504 10.3962C11.003 10.0427 11.2091 9.75215 11.522 9.43842C11.7565 9.20334 12.0896 8.95189 12.478 8.6886L12.0401 7.92735L9.97429 8.70984L9.59157 8.85424L9.37096 8.51828L8.71746 7.52169C8.38009 7.89349 8.21018 8.27629 8.23612 8.63354C8.2711 9.11556 8.65617 9.72711 9.87235 10.3834L9.38599 11.2323C8.01214 10.491 7.30676 9.62131 7.24001 8.70174C7.17327 7.78223 7.74237 6.98701 8.49685 6.38714L8.93305 6.04147L8.93299 6.04137ZM8.61381 12.1802L21.4379 13.0193L21.371 13.9883L8.54707 13.1475L8.61392 12.1801L8.61381 12.1802ZM7.29013 17.1795C6.34686 17.6507 5.6287 18.4109 5.17929 19.2036C4.93916 19.627 4.7885 20.0581 4.71293 20.4437L5.33471 22.6333L5.42499 22.6415C5.22047 21.2124 6.03244 19.5051 7.62776 18.4358L7.29013 17.1795V17.1795ZM8.69243 18.9455C6.95945 19.8431 6.21765 21.6622 6.46452 22.7258L21.9626 24C21.6792 23.5978 21.5013 23.074 21.5031 22.5294L20.3013 22.0604L22.795 21.6805L22.0628 21.002C22.3598 20.6468 22.787 20.3311 23.3715 20.0914L8.69227 18.9455L8.69243 18.9455Z" fill="white"/>
</svg>
